<svg xmlns="http://www.w3.org/2000/svg" height="512.00003pt" version="1.1" viewBox="0 0 512.00003 512.00003" width="512.00003pt">
<g id="surface1">
<path d="M 512 256 L 410.242188 184.769531 L 410.242188 224.128906 L 279.34375 224.128906 L 275.957031 166.542969 L 260.792969 167.433594 L 265.023438 239.320312 L 425.433594 239.320312 L 425.433594 213.945312 L 485.511719 256 L 425.433594 298.054688 L 425.433594 272.246094 L 265.023438 281.15625 L 256.007812 425.429688 L 281.871094 425.429688 L 239.816406 485.511719 L 197.761719 425.429688 L 223.625 425.429688 L 219.582031 360.71875 L 204.421875 361.667969 L 207.457031 410.242188 L 168.585938 410.242188 L 239.816406 512 L 311.046875 410.242188 L 272.175781 410.242188 L 279.34375 295.574219 L 410.242188 288.304688 L 410.242188 327.230469 Z M 512 256 " style=" stroke:none;fill-rule:nonzero;fill:rgb(0%,0%,0%);fill-opacity:1;" />
<path d="M 101.757812 288.433594 L 200.285156 295.46875 L 202.902344 337.390625 L 218.0625 336.445312 L 214.613281 281.265625 L 86.566406 272.117188 L 86.566406 298.054688 L 26.488281 256 L 86.566406 213.945312 L 86.566406 239.320312 L 214.609375 239.320312 L 223.59375 86.566406 L 197.761719 86.566406 L 239.816406 26.488281 L 281.871094 86.566406 L 256.035156 86.566406 L 259.367188 143.160156 L 274.53125 142.265625 L 272.148438 101.757812 L 311.046875 101.757812 L 239.816406 0 L 168.585938 101.757812 L 207.488281 101.757812 L 200.289062 224.128906 L 101.757812 224.128906 L 101.757812 184.769531 L 0 256 L 101.757812 327.230469 Z M 101.757812 288.433594 " style=" stroke:none;fill-rule:nonzero;fill:rgb(0%,0%,0%);fill-opacity:1;" />
<path d="M 5.648438 207.449219 L 20.839844 207.449219 L 20.839844 223.632812 L 5.648438 223.632812 Z M 5.648438 207.449219 " style=" stroke:none;fill-rule:nonzero;fill:rgb(0%,0%,0%);fill-opacity:1;" />
<path d="M 5.648438 175.082031 L 20.839844 175.082031 L 20.839844 191.265625 L 5.648438 191.265625 Z M 5.648438 175.082031 " style=" stroke:none;fill-rule:nonzero;fill:rgb(0%,0%,0%);fill-opacity:1;" />
<path d="M 5.648438 142.714844 L 20.839844 142.714844 L 20.839844 158.898438 L 5.648438 158.898438 Z M 5.648438 142.714844 " style=" stroke:none;fill-rule:nonzero;fill:rgb(0%,0%,0%);fill-opacity:1;" />
<path d="M 5.648438 110.347656 L 20.839844 110.347656 L 20.839844 126.53125 L 5.648438 126.53125 Z M 5.648438 110.347656 " style=" stroke:none;fill-rule:nonzero;fill:rgb(0%,0%,0%);fill-opacity:1;" />
<path d="M 5.648438 77.976562 L 20.839844 77.976562 L 20.839844 94.160156 L 5.648438 94.160156 Z M 5.648438 77.976562 " style=" stroke:none;fill-rule:nonzero;fill:rgb(0%,0%,0%);fill-opacity:1;" />
<path d="M 5.648438 45.609375 L 20.839844 45.609375 L 20.839844 61.792969 L 5.648438 61.792969 Z M 5.648438 45.609375 " style=" stroke:none;fill-rule:nonzero;fill:rgb(0%,0%,0%);fill-opacity:1;" />
<path d="M 5.648438 13.242188 L 20.839844 13.242188 L 20.839844 29.425781 L 5.648438 29.425781 Z M 5.648438 13.242188 " style=" stroke:none;fill-rule:nonzero;fill:rgb(0%,0%,0%);fill-opacity:1;" />
<path d="M 38.015625 13.242188 L 53.207031 13.242188 L 53.207031 29.425781 L 38.015625 29.425781 Z M 38.015625 13.242188 " style=" stroke:none;fill-rule:nonzero;fill:rgb(0%,0%,0%);fill-opacity:1;" />
<path d="M 70.382812 13.242188 L 85.574219 13.242188 L 85.574219 29.425781 L 70.382812 29.425781 Z M 70.382812 13.242188 " style=" stroke:none;fill-rule:nonzero;fill:rgb(0%,0%,0%);fill-opacity:1;" />
<path d="M 102.75 13.242188 L 117.941406 13.242188 L 117.941406 29.425781 L 102.75 29.425781 Z M 102.75 13.242188 " style=" stroke:none;fill-rule:nonzero;fill:rgb(0%,0%,0%);fill-opacity:1;" />
<path d="M 135.121094 13.242188 L 150.308594 13.242188 L 150.308594 29.425781 L 135.121094 29.425781 Z M 135.121094 13.242188 " style=" stroke:none;fill-rule:nonzero;fill:rgb(0%,0%,0%);fill-opacity:1;" />
<path d="M 167.488281 13.242188 L 182.675781 13.242188 L 182.675781 29.425781 L 167.488281 29.425781 Z M 167.488281 13.242188 " style=" stroke:none;fill-rule:nonzero;fill:rgb(0%,0%,0%);fill-opacity:1;" />
<path d="M 491.160156 288.367188 L 506.351562 288.367188 L 506.351562 304.550781 L 491.160156 304.550781 Z M 491.160156 288.367188 " style=" stroke:none;fill-rule:nonzero;fill:rgb(0%,0%,0%);fill-opacity:1;" />
<path d="M 491.160156 320.734375 L 506.351562 320.734375 L 506.351562 336.917969 L 491.160156 336.917969 Z M 491.160156 320.734375 " style=" stroke:none;fill-rule:nonzero;fill:rgb(0%,0%,0%);fill-opacity:1;" />
<path d="M 491.160156 353.101562 L 506.351562 353.101562 L 506.351562 369.285156 L 491.160156 369.285156 Z M 491.160156 353.101562 " style=" stroke:none;fill-rule:nonzero;fill:rgb(0%,0%,0%);fill-opacity:1;" />
<path d="M 491.160156 385.46875 L 506.351562 385.46875 L 506.351562 401.652344 L 491.160156 401.652344 Z M 491.160156 385.46875 " style=" stroke:none;fill-rule:nonzero;fill:rgb(0%,0%,0%);fill-opacity:1;" />
<path d="M 491.160156 417.835938 L 506.351562 417.835938 L 506.351562 434.019531 L 491.160156 434.019531 Z M 491.160156 417.835938 " style=" stroke:none;fill-rule:nonzero;fill:rgb(0%,0%,0%);fill-opacity:1;" />
<path d="M 491.160156 450.203125 L 506.351562 450.203125 L 506.351562 466.386719 L 491.160156 466.386719 Z M 491.160156 450.203125 " style=" stroke:none;fill-rule:nonzero;fill:rgb(0%,0%,0%);fill-opacity:1;" />
<path d="M 491.160156 482.570312 L 506.351562 482.570312 L 506.351562 498.753906 L 491.160156 498.753906 Z M 491.160156 482.570312 " style=" stroke:none;fill-rule:nonzero;fill:rgb(0%,0%,0%);fill-opacity:1;" />
<path d="M 458.792969 482.570312 L 473.984375 482.570312 L 473.984375 498.753906 L 458.792969 498.753906 Z M 458.792969 482.570312 " style=" stroke:none;fill-rule:nonzero;fill:rgb(0%,0%,0%);fill-opacity:1;" />
<path d="M 426.425781 482.570312 L 441.617188 482.570312 L 441.617188 498.753906 L 426.425781 498.753906 Z M 426.425781 482.570312 " style=" stroke:none;fill-rule:nonzero;fill:rgb(0%,0%,0%);fill-opacity:1;" />
<path d="M 394.058594 482.570312 L 409.25 482.570312 L 409.25 498.753906 L 394.058594 498.753906 Z M 394.058594 482.570312 " style=" stroke:none;fill-rule:nonzero;fill:rgb(0%,0%,0%);fill-opacity:1;" />
<path d="M 361.691406 482.570312 L 376.878906 482.570312 L 376.878906 498.753906 L 361.691406 498.753906 Z M 361.691406 482.570312 " style=" stroke:none;fill-rule:nonzero;fill:rgb(0%,0%,0%);fill-opacity:1;" />
<path d="M 329.324219 482.570312 L 344.511719 482.570312 L 344.511719 498.753906 L 329.324219 498.753906 Z M 329.324219 482.570312 " style=" stroke:none;fill-rule:nonzero;fill:rgb(0%,0%,0%);fill-opacity:1;" />
<path d="M 296.957031 482.570312 L 312.144531 482.570312 L 312.144531 498.753906 L 296.957031 498.753906 Z M 296.957031 482.570312 " style=" stroke:none;fill-rule:nonzero;fill:rgb(0%,0%,0%);fill-opacity:1;" />
<path d="M 491.160156 215.539062 L 506.351562 215.539062 L 506.351562 13.742188 L 288.367188 13.742188 L 288.367188 28.929688 L 491.160156 28.929688 Z M 491.160156 215.539062 " style=" stroke:none;fill-rule:nonzero;fill:rgb(0%,0%,0%);fill-opacity:1;" />
<path d="M 20.839844 296.460938 L 5.648438 296.460938 L 5.648438 498.257812 L 191.265625 498.257812 L 191.265625 483.070312 L 20.839844 483.070312 Z M 20.839844 296.460938 " style=" stroke:none;fill-rule:nonzero;fill:rgb(0%,0%,0%);fill-opacity:1;" />
<path d="M 231.726562 248.40625 L 247.910156 248.40625 L 247.910156 263.59375 L 231.726562 263.59375 Z M 231.726562 248.40625 " style=" stroke:none;fill-rule:nonzero;fill:rgb(0%,0%,0%);fill-opacity:1;" />
<path d="M 231.726562 216.039062 L 247.910156 216.039062 L 247.910156 231.226562 L 231.726562 231.226562 Z M 231.726562 216.039062 " style=" stroke:none;fill-rule:nonzero;fill:rgb(0%,0%,0%);fill-opacity:1;" />
<path d="M 231.726562 280.773438 L 247.910156 280.773438 L 247.910156 295.960938 L 231.726562 295.960938 Z M 231.726562 280.773438 " style=" stroke:none;fill-rule:nonzero;fill:rgb(0%,0%,0%);fill-opacity:1;" />
<path d="M 458.296875 46.109375 L 474.480469 46.109375 L 474.480469 61.296875 L 458.296875 61.296875 Z M 458.296875 46.109375 " style=" stroke:none;fill-rule:nonzero;fill:rgb(0%,0%,0%);fill-opacity:1;" />
<path d="M 458.296875 78.476562 L 474.480469 78.476562 L 474.480469 93.664062 L 458.296875 93.664062 Z M 458.296875 78.476562 " style=" stroke:none;fill-rule:nonzero;fill:rgb(0%,0%,0%);fill-opacity:1;" />
<path d="M 425.929688 46.109375 L 442.113281 46.109375 L 442.113281 61.296875 L 425.929688 61.296875 Z M 425.929688 46.109375 " style=" stroke:none;fill-rule:nonzero;fill:rgb(0%,0%,0%);fill-opacity:1;" />
<path d="M 37.519531 450.703125 L 53.703125 450.703125 L 53.703125 465.890625 L 37.519531 465.890625 Z M 37.519531 450.703125 " style=" stroke:none;fill-rule:nonzero;fill:rgb(0%,0%,0%);fill-opacity:1;" />
<path d="M 69.886719 450.703125 L 86.070312 450.703125 L 86.070312 465.890625 L 69.886719 465.890625 Z M 69.886719 450.703125 " style=" stroke:none;fill-rule:nonzero;fill:rgb(0%,0%,0%);fill-opacity:1;" />
<path d="M 37.519531 418.335938 L 53.703125 418.335938 L 53.703125 433.523438 L 37.519531 433.523438 Z M 37.519531 418.335938 " style=" stroke:none;fill-rule:nonzero;fill:rgb(0%,0%,0%);fill-opacity:1;" />
</g>
</svg>