<svg id="Capa_1" enable-background="new 0 0 512 512" height="512" viewBox="0 0 512 512" width="512" xmlns="http://www.w3.org/2000/svg"><path d="m23.273 136.252v239.495c0 4.142 3.358 7.5 7.5 7.5s7.5-3.358 7.5-7.5v-239.495c0-4.142-3.358-7.5-7.5-7.5s-7.5 3.358-7.5 7.5zm472.591 281.073c-9.954-4.124-20.868-1.951-28.484 5.667l-5.033 5.033-25.135-25.135c-9.462-9.463-24.859-9.462-34.321 0-4.584 4.583-7.109 10.678-7.109 17.161s2.525 12.578 7.109 17.161l25.135 25.135-5.033 5.033c-7.618 7.617-9.789 18.532-5.667 28.484 4.123 9.953 13.376 16.136 24.148 16.136h44.252c14.487 0 26.274-11.787 26.274-26.274v-44.252c0-10.773-6.183-20.026-16.136-24.149zm-82.367 9.28c-1.751-1.751-2.715-4.078-2.715-6.554s.964-4.803 2.715-6.554c3.614-3.615 9.495-3.614 13.109 0l25.135 25.135-13.109 13.109zm83.503 59.121c0 6.217-5.058 11.274-11.274 11.274h-44.252c-4.66 0-8.507-2.57-10.29-6.876-1.783-4.305-.881-8.842 2.415-12.138l44.388-44.388c2.181-2.181 4.905-3.313 7.747-3.313 1.452 0 2.935.296 4.391.899 4.306 1.783 6.876 5.63 6.876 10.29v44.252zm-184.34-312.275c4.142 0 7.5-3.358 7.5-7.5v-9.405c0-4.142-3.358-7.5-7.5-7.5s-7.5 3.358-7.5 7.5v9.405c0 4.142 3.358 7.5 7.5 7.5zm-296.525-78.776c3.335 1.381 6.778 2.056 10.168 2.056 6.729 0 13.252-2.658 18.317-7.723l5.033-5.033 25.135 25.134c4.731 4.732 10.945 7.097 17.161 7.097 6.214 0 12.43-2.366 17.161-7.096 4.584-4.584 7.109-10.678 7.109-17.161s-2.525-12.578-7.109-17.161l-25.135-25.134 5.034-5.034c7.618-7.617 9.789-18.532 5.666-28.484-4.123-9.953-13.376-16.136-24.149-16.136h-44.252c-14.487 0-26.274 11.787-26.274 26.274v44.252c0 10.773 6.183 20.026 16.135 24.149zm82.368-9.28c1.751 1.751 2.715 4.078 2.715 6.554s-.964 4.803-2.715 6.554c-3.614 3.615-9.496 3.614-13.109.001l-25.134-25.135 13.109-13.109zm-83.503-59.121c0-6.216 5.058-11.274 11.274-11.274h44.252c4.66 0 8.507 2.57 10.29 6.876 1.784 4.305.881 8.843-2.414 12.138l-44.388 44.388c-3.295 3.295-7.833 4.197-12.139 2.415-4.305-1.784-6.875-5.63-6.875-10.291zm470.726-26.274h-44.252c-10.773 0-20.026 6.183-24.148 16.136-4.123 9.953-1.951 20.867 5.667 28.484l5.033 5.033-25.136 25.135c-9.462 9.462-9.462 24.859-.001 34.321 4.584 4.584 10.678 7.109 17.162 7.109 6.483 0 12.578-2.525 17.161-7.109l25.135-25.135 5.033 5.033c5.065 5.065 11.587 7.722 18.316 7.722 3.39 0 6.833-.675 10.168-2.056 9.953-4.121 16.136-13.374 16.136-24.147v-44.252c0-14.487-11.787-26.274-26.274-26.274zm-59.121 98.504c-1.751 1.75-4.078 2.715-6.554 2.715s-4.804-.964-6.554-2.715c-3.614-3.614-3.614-9.495 0-13.109l25.135-25.135 13.109 13.109zm70.395-27.978c0 4.66-2.57 8.507-6.876 10.29-4.305 1.783-8.843.881-12.138-2.415l-44.388-44.388c-3.295-3.295-4.198-7.833-2.415-12.138 1.783-4.306 5.63-6.876 10.29-6.876h44.252c6.217.001 11.275 5.059 11.275 11.275zm-360.748-32.253h239.495c4.142 0 7.5-3.358 7.5-7.5s-3.358-7.5-7.5-7.5h-239.495c-4.142 0-7.5 3.358-7.5 7.5s3.358 7.5 7.5 7.5zm55.588 118.272v9.405c0 4.142 3.358 7.5 7.5 7.5s7.5-3.358 7.5-7.5v-9.405c0-4.142-3.358-7.5-7.5-7.5s-7.5 3.358-7.5 7.5zm183.908 317.183h-239.495c-4.142 0-7.5 3.358-7.5 7.5s3.358 7.5 7.5 7.5h239.495c4.142 0 7.5-3.358 7.5-7.5 0-4.143-3.358-7.5-7.5-7.5zm-110.464-312.288c-2.344 2.69-5.728 4.233-9.284 4.233s-6.939-1.543-9.284-4.233c-2.721-3.123-7.459-3.448-10.581-.727-3.123 2.721-3.448 7.458-.727 10.581 5.193 5.96 12.699 9.378 20.592 9.378s15.399-3.418 20.592-9.378c2.721-3.123 2.396-7.86-.727-10.581-3.123-2.722-7.861-2.396-10.581.727zm223.444 214.308v-239.496c0-4.142-3.358-7.5-7.5-7.5s-7.5 3.358-7.5 7.5v239.495c0 4.142 3.358 7.5 7.5 7.5 4.142.001 7.5-3.357 7.5-7.499zm-364.563-27.725-8.248-4.762c-2.19-1.264-2.426-3.359-2.426-4.201v-145.996l115.822 66.869c5.995 3.462 12.521 5.647 19.188 6.587v150.928c-4.058-.804-8.012-2.265-11.688-4.387l-81.534-47.074c-3.587-2.073-8.174-.842-10.245 2.745s-.842 8.174 2.745 10.245l81.534 47.074c7.982 4.608 16.902 6.962 25.851 7.101.275.031.554.049.837.049s.562-.019.837-.049c8.948-.139 17.869-2.493 25.851-7.101l120.896-69.799c6.216-3.589 9.927-10.016 9.927-17.193v-166.118c0-.009-.001-.017-.001-.026-.009-7.167-3.717-13.583-9.925-17.167l-83.165-48.015c-3.587-2.072-8.174-.842-10.245 2.745s-.842 8.174 2.745 10.245l83.165 48.015c2.19 1.265 2.426 3.36 2.426 4.202.001.843-.236 2.939-2.426 4.203l-120.896 69.799c-11.836 6.833-26.54 6.834-38.376 0l-120.896-69.799c-2.19-1.265-2.427-3.36-2.426-4.203 0-.842.236-2.938 2.426-4.202l120.894-69.798c11.836-6.833 26.54-6.833 38.376 0l6.206 3.583c3.586 2.071 8.174.843 10.246-2.745 2.071-3.587.842-8.174-2.745-10.246l-6.207-3.583c-16.462-9.504-36.914-9.504-53.376 0l-120.896 69.799c-6.215 3.588-9.926 10.015-9.926 17.192v166.12c0 7.176 3.711 13.603 9.926 17.191l8.248 4.762c1.181.682 2.471 1.006 3.743 1.006 2.592 0 5.113-1.345 6.502-3.751 2.072-3.586.843-8.173-2.744-10.245zm139.335-81.504c6.668-.941 13.194-3.125 19.188-6.586l115.822-66.87v145.995c0 .842-.236 2.938-2.427 4.203l-120.896 69.799c-3.676 2.122-7.63 3.583-11.688 4.387v-150.928zm-171.551 129.262c-6.483 0-12.578 2.525-17.161 7.109l-25.134 25.135-5.033-5.033c-7.618-7.618-18.533-9.79-28.485-5.667-9.953 4.123-16.136 13.376-16.136 24.149v44.252c0 14.487 11.787 26.274 26.274 26.274h44.252c10.773 0 20.026-6.183 24.148-16.136 4.123-9.952 1.952-20.867-5.666-28.484l-5.033-5.033 25.134-25.135c9.462-9.462 9.462-24.859 0-34.321-4.582-4.585-10.677-7.11-17.16-7.11zm-11.133 94.343c-1.783 4.306-5.63 6.876-10.29 6.876h-44.252c-6.216 0-11.274-5.058-11.274-11.274v-44.252c0-4.66 2.57-8.507 6.875-10.29 1.457-.603 2.939-.899 4.391-.899 2.842 0 5.567 1.133 7.748 3.313l44.388 44.388c3.295 3.295 4.198 7.833 2.414 12.138zm17.687-63.519-25.134 25.135-13.109-13.109 25.135-25.135c1.751-1.751 4.078-2.715 6.554-2.715s4.803.964 6.554 2.715c3.614 3.615 3.614 9.495 0 13.109z"/></svg>