<svg height="681pt" viewBox="-21 -21 681.63801 681" width="681pt" xmlns="http://www.w3.org/2000/svg"><path d="m302.933594 397.523438c8.492187-8.496094 2.265625-23.453126-9.71875-23.453126h-79.875c-6.390625 0-12.398438 2.488282-16.910156 7.007813l-70.265626 70.265625c-18.234374 18.234375-31.65625 40.964844-38.820312 65.75l-6.449219 22.332031c-1.324219 4.59375-.445312 9.414063 2.421875 13.226563 3.710938 4.933594 10.308594 7.148437 16.238282 5.433594l22.335937-6.449219c24.777344-7.164063 47.519531-20.585938 65.75-38.820313 0-.003906 115.15625-115.152344 115.292969-115.292968zm-186.242188 136.117187-15.964844 4.609375 4.613282-15.960938c6.28125-21.742187 18.0625-41.699218 34.066406-57.707031l70.261719-70.257812c.980469-.980469 2.285156-1.523438 3.671875-1.523438h67.824218l-106.769531 106.769531c-16 16.003907-35.953125 27.785157-57.703125 34.070313zm0 0"/><path d="m613.277344 25.699219c-33.945313-33.945313-90.667969-33.90625-124.574219 0l-107.871094 107.875c-7.175781-4.660157-15.539062-7.171875-24.292969-7.171875-11.941406 0-23.167968 4.652344-31.613281 13.097656 0 0-18.511719 18.507812-18.527343 18.519531-14.703126 14.710938-17.265626 38.457031-5.921876 55.90625l-205.859374 205.863281c-23.550782 23.550782-40.886719 52.917969-50.132813 84.917969l-14.078125 48.730469c-.84375 2.917969-2.425781 5.59375-4.570312 7.738281l-14.851563 14.851563c-14.085937 14.085937-14.707031 37.175781-1.386719 51.472656 14 15.03125 38.367188 15.476562 52.886719.957031l15.320313-15.3125c2.144531-2.144531 4.816406-3.726562 7.734374-4.570312l48.730469-14.074219c11.742188-3.394531 23.246094-7.917969 34.207031-13.453125 4.617188-2.324219 6.46875-7.960937 4.140626-12.578125-2.332032-4.617188-7.960938-6.46875-12.578126-4.136719-9.921874 5.003907-20.339843 9.101563-30.964843 12.171875l-48.734375 14.074219c-5.949219 1.722656-11.40625 4.945313-15.78125 9.324219 0 0-15.300782 15.296875-15.316406 15.3125-7.136719 7.132812-19.082032 6.886718-25.941407-.476563-6.523437-7.007812-6.109375-18.429687.925781-25.464843l14.851563-14.851563c4.378906-4.378906 7.601563-9.832031 9.320313-15.785156l14.078124-48.730469c8.371094-28.96875 24.0625-55.550781 45.382813-76.871094l205.164063-205.164062 98.085937 98.085937-205.164063 205.160157c-5.171874 5.179687-10.753906 10.105468-16.589843 14.648437-4.082031 3.179687-4.8125 9.0625-1.640625 13.144531 3.179687 4.078125 9.0625 4.8125 13.144531 1.632813 6.441406-5.011719 12.609375-10.457031 18.332031-16.183594l205.859375-205.855469c7.171875 4.660156 15.535157 7.167969 24.292969 7.167969 11.9375 0 23.167969-4.652344 31.609375-13.089844 0 0 18.519531-18.519531 18.527344-18.527343 14.679687-14.679688 17.246093-38.492188 5.925781-55.90625l107.871094-107.875c34.34375-34.34375 34.34375-90.226563 0-124.574219zm-127.042969 275.113281s-18.503906 18.503906-18.523437 18.523438c-10.015626 10.019531-26.730469 10.007812-36.734376 0 0 0-111.222656-111.226563-111.332031-111.332032-10.011719-10.007812-9.992187-26.742187 0-36.738281 0 0 18.507813-18.503906 18.523438-18.519531 10.023437-10.023438 26.730469-10.011719 36.742187 0 0 0 111.324219 111.332031 111.324219 111.332031 10 9.992187 9.976563 26.757813 0 36.734375zm6.625-56.605469-98.089844-98.085937s107.125-107.121094 107.179688-107.171875c26.726562-26.730469 71.390625-26.699219 98.082031 0 27.046875 27.039062 27.046875 71.039062 0 98.082031zm0 0"/></svg>